<svg width="54" height="49" viewBox="0 0 54 49" fill="none" xmlns="http://www.w3.org/2000/svg">
<path fill-rule="evenodd" clip-rule="evenodd" d="M3.58572 0.546068C3.58572 0.609699 3.3419 0.694009 3.04302 0.734574C2.74413 0.775139 2.46411 0.865018 2.42007 0.933421C2.37602 1.00182 2.22265 1.09647 2.07871 1.1442C1.72634 1.25953 0.832816 2.05969 0.832816 2.25933C0.832816 2.34762 0.788769 2.42 0.734497 2.42C-0.0197993 2.42636 -0.2825 5.87198 0.374266 7.1446C0.481236 7.35299 0.569323 7.5924 0.57011 7.67751C0.570896 7.76262 0.614948 7.85249 0.66922 7.87636C0.723492 7.90101 0.931138 8.24939 1.13013 8.65027C1.51869 9.43054 1.77038 9.8688 1.89151 9.97538C1.98039 10.0541 2.16995 10.5489 2.14085 10.6268C2.12984 10.6562 2.21399 10.7342 2.32883 10.7986C2.44367 10.8638 2.53726 10.9982 2.53726 11.0977C2.53726 11.1979 2.58131 11.2989 2.63558 11.3236C2.68985 11.3474 2.82593 11.5463 2.93762 11.765C3.4237 12.7123 3.91843 13.6262 3.979 13.6875C4.11192 13.8219 4.38643 14.2943 4.53745 14.6483C4.6224 14.8487 4.73173 15.0134 4.7805 15.0134C4.82847 15.0134 4.9087 15.1764 4.95825 15.3761C5.00859 15.5757 5.09197 15.7698 5.14466 15.8072C5.30119 15.9177 6.20808 17.4878 6.20808 17.6485C6.20808 17.7304 6.25998 17.7972 6.32369 17.7972C6.3874 17.7972 6.47235 17.9014 6.51246 18.0287C6.55179 18.1567 6.67292 18.4105 6.78068 18.5926C7.7442 20.2255 8.53231 21.6151 8.60388 21.8068C8.65108 21.9348 8.74625 22.039 8.81546 22.039C8.88389 22.039 8.97907 22.218 9.02626 22.4367C9.07345 22.6554 9.15761 22.8344 9.21188 22.8344C9.26694 22.8344 9.38099 22.9879 9.46515 23.1748L9.61854 23.5153L10.306 23.1215C10.6835 22.9044 11.1987 22.6109 11.4512 22.4685C12.3628 21.9539 17.1772 19.147 18.1809 18.5457C18.7456 18.2068 19.2317 17.9293 19.2608 17.9293C19.2899 17.9293 19.9482 17.553 20.7245 17.0917C21.5001 16.6312 23.1825 15.6425 24.4622 14.8941C25.7419 14.1456 26.7888 13.4632 26.7888 13.3765C26.7888 13.2126 25.48 12.3615 25.2283 12.3615C25.1496 12.3615 25.0852 12.3162 25.0852 12.2605C25.0852 12.1587 24.7988 11.9829 24.1342 11.6751C23.936 11.5837 23.774 11.458 23.774 11.3967C23.774 11.3355 23.715 11.3228 23.6426 11.3673C23.571 11.4126 23.5121 11.3904 23.5121 11.318C23.5121 11.2456 23.3815 11.1446 23.2226 11.0937C23.0637 11.0428 22.8537 10.9195 22.7546 10.8201C22.6563 10.7199 22.4911 10.6387 22.3881 10.6387C22.2851 10.6387 22.2009 10.5926 22.2009 10.5361C22.2009 10.4805 21.935 10.2872 21.611 10.1082C21.2869 9.92925 21.0211 9.73597 21.0211 9.68029C21.0211 9.62382 20.9448 9.57769 20.8512 9.57769C20.7576 9.57769 20.2707 9.30408 19.7697 8.96842C19.2679 8.63356 18.7401 8.30427 18.5962 8.23667C18.4514 8.16906 18.0975 7.96862 17.8096 7.79125C17.521 7.61467 17.1961 7.42617 17.0884 7.37367C16.9798 7.32038 16.8626 7.23846 16.8264 7.19073C16.7903 7.14221 16.3286 6.83997 15.8008 6.51783C15.273 6.1957 14.6831 5.82744 14.4896 5.69859C14.2969 5.57053 14.0358 5.42895 13.9091 5.3852C13.7833 5.34066 13.6803 5.25953 13.6803 5.20306C13.6803 5.14738 13.5764 5.06705 13.4506 5.02569C13.3247 4.98353 12.985 4.79821 12.6971 4.61288C12.4084 4.42835 12.0254 4.20246 11.8444 4.11179C11.6643 4.02111 11.4394 3.87158 11.3434 3.78011C11.2483 3.68785 11.0909 3.61228 10.9942 3.61228C10.8975 3.61228 10.7983 3.56456 10.774 3.5065C10.7504 3.44764 10.3469 3.16766 9.87808 2.8845C9.4093 2.60135 8.99638 2.33569 8.96098 2.29512C8.9248 2.25376 8.59995 2.07162 8.23972 1.88948C7.87948 1.70733 7.56565 1.51564 7.54206 1.46394C7.48149 1.32714 6.12863 0.696395 5.89582 0.696395C5.78727 0.696395 5.66221 0.636741 5.61817 0.563566C5.51906 0.401307 3.58572 0.384604 3.58572 0.546068Z" fill="white"/>
<path fill-rule="evenodd" clip-rule="evenodd" d="M48.9438 0.553302C48.9438 0.656702 48.7873 0.702835 48.5159 0.678974C48.2807 0.659089 48.0298 0.675792 47.959 0.717152C47.8875 0.759308 47.6759 0.784759 47.4887 0.774419C47.2566 0.761693 47.152 0.820551 47.1607 0.957358C47.1685 1.07189 47.0458 1.17848 46.8791 1.20234C46.7171 1.2262 46.5802 1.31528 46.5747 1.40119C46.57 1.48709 46.5149 1.43857 46.4528 1.29301C46.349 1.04803 46.3395 1.04724 46.3309 1.27392C46.3254 1.42664 46.253 1.49345 46.1413 1.4497C46.0304 1.40675 45.9675 1.46482 45.9777 1.60162C45.9872 1.72332 45.9203 1.80842 45.8306 1.79013C45.7402 1.77183 45.6662 1.80524 45.6662 1.8649C45.6662 1.92376 45.4625 2.0534 45.2132 2.15203C44.9639 2.25145 44.731 2.40894 44.6956 2.502C44.6595 2.59586 44.5132 2.64915 44.37 2.62131C44.1915 2.58631 44.1301 2.62767 44.1765 2.75016C44.2269 2.8814 44.1647 2.90924 43.9524 2.85276C43.7243 2.79311 43.6842 2.81697 43.7707 2.96173C43.8635 3.11763 43.847 3.12002 43.6716 2.97685C43.5441 2.87265 43.4301 2.85515 43.3829 2.93231C43.3404 3.0023 43.3742 3.08343 43.4592 3.11127C43.5441 3.1399 43.4065 3.26239 43.1548 3.38329C42.9023 3.50498 42.5413 3.7603 42.3525 3.95119C42.163 4.14288 41.9577 4.26697 41.8955 4.22879C41.8334 4.18981 41.6116 4.30753 41.4016 4.48967C41.1916 4.67182 40.9194 4.79431 40.7967 4.76249C40.6379 4.72033 40.5962 4.76249 40.6512 4.90884C40.7031 5.04406 40.6772 5.08144 40.5765 5.01861C40.4916 4.96611 40.4231 4.986 40.4231 5.06315C40.4231 5.1403 40.3618 5.20314 40.2863 5.20314L39.8686 5.46879L39.3495 5.73366L39.112 5.86649L38.9185 5.99852C38.9185 5.99852 38.6353 6.13612 38.5268 6.30475C38.3813 6.52904 38.2208 6.60302 37.9243 6.58234C37.6309 6.56166 37.5389 6.60302 37.5884 6.73346C37.6309 6.84561 37.5892 6.88697 37.4783 6.84402C37.3753 6.80425 37.2644 6.89015 37.214 7.05002C37.1668 7.20115 37.0433 7.32443 36.9403 7.32443C36.8365 7.32443 36.7523 7.37693 36.7523 7.44056C36.7523 7.50419 36.5824 7.59089 36.3748 7.63304C36.1671 7.6744 35.906 7.80167 35.7943 7.91461C35.5583 8.15323 35.25 8.1922 35.3885 7.9671C35.4482 7.86927 35.4239 7.85018 35.3216 7.91382C35.2335 7.9687 35.195 8.04744 35.2351 8.088C35.3609 8.21526 34.7946 8.53819 34.6216 8.43798C34.5319 8.38548 34.4973 8.38707 34.5453 8.44115C34.6696 8.58114 34.1614 9.06156 33.8649 9.08463C33.7288 9.09496 33.6447 9.13076 33.6777 9.16416C33.824 9.3121 33.3104 9.67719 33.0524 9.60879C32.8408 9.55311 32.7936 9.58413 32.8534 9.74082C32.9108 9.89274 32.866 9.92853 32.6804 9.87922C32.5254 9.83865 32.3988 9.89512 32.3485 10.0272C32.3036 10.1449 32.1817 10.2411 32.0771 10.2411C31.9725 10.2411 31.9229 10.3008 31.9678 10.3732C32.0118 10.4463 31.9237 10.506 31.7711 10.506C31.6186 10.506 31.5265 10.5601 31.5666 10.6261C31.6067 10.6921 31.5281 10.7168 31.3904 10.6802C31.2182 10.6348 31.1136 10.7001 31.0538 10.8917C30.972 11.151 30.7675 11.2338 30.3483 11.1757C30.2507 11.1622 30.2106 11.2147 30.2578 11.2926C30.3058 11.3706 30.2492 11.4342 30.132 11.4342C30.0053 11.4342 29.9574 11.3722 30.014 11.2807C30.073 11.1836 30.0494 11.1638 29.9495 11.2266C29.8276 11.3022 29.8307 11.3737 29.9621 11.5376C30.0919 11.6991 30.0926 11.7261 29.9676 11.6497C29.874 11.5925 29.7112 11.6426 29.59 11.7643C29.4728 11.8828 29.3037 11.9512 29.2141 11.9162C29.1244 11.8812 28.9773 11.9926 28.8869 12.1628C28.7823 12.36 28.6493 12.4451 28.5211 12.395C28.3953 12.3457 28.3528 12.3712 28.4087 12.4626C28.4857 12.5891 27.9997 12.8548 27.8502 12.7673C27.8203 12.7498 27.744 12.8309 27.6795 12.9462C27.615 13.0624 27.4499 13.157 27.3122 13.157C27.1746 13.157 26.9559 13.2684 26.8269 13.4044C26.6987 13.5412 25.6487 14.2045 24.4956 14.879C23.3417 15.5543 21.7026 16.5167 20.8531 17.0178C20.0036 17.5189 19.2855 17.9293 19.258 17.9293C19.2305 17.9293 18.746 18.2069 18.1812 18.5458C16.1024 19.7921 10.5958 22.98 10.0342 23.2624C9.73922 23.4111 9.71562 23.9639 9.9972 24.1588C10.0507 24.1962 10.2654 24.5692 10.4731 24.9884C10.6807 25.4076 10.8931 25.7512 10.9442 25.7512C10.9953 25.7512 11.0763 25.9301 11.1243 26.1489C11.1715 26.3676 11.2635 26.5466 11.3288 26.5466C11.3933 26.5466 11.4838 26.6953 11.5294 26.8774C11.5742 27.0604 11.66 27.2091 11.7197 27.2091C11.7787 27.2091 11.8684 27.3403 11.9187 27.501C11.9699 27.6617 12.0918 27.8748 12.1901 27.9743C12.2884 28.0745 12.3694 28.2415 12.3694 28.3457C12.3694 28.4499 12.4158 28.535 12.4717 28.535C12.5283 28.535 12.6486 28.6989 12.7391 28.8993C13.0435 29.5714 13.2173 29.8601 13.318 29.8601C13.3731 29.8601 13.4179 29.9452 13.4179 30.0494C13.4179 30.1536 13.4918 30.3199 13.5823 30.4193C13.6719 30.5179 13.9229 30.9546 14.1392 31.3897C14.3555 31.8247 14.5631 32.2097 14.6009 32.2463C14.6378 32.2829 14.7558 32.4873 14.8628 32.7005C15.2356 33.4449 15.3166 33.5722 15.4157 33.5722C15.4708 33.5722 15.5156 33.6525 15.5156 33.7504C15.5156 33.849 15.6336 34.0669 15.7775 34.2348C15.9222 34.4034 16.0402 34.6213 16.0402 34.7192C16.0402 34.8178 16.0929 34.8981 16.1566 34.8981C16.2211 34.8981 16.3108 35.0469 16.3556 35.229C16.4012 35.4119 16.4917 35.5607 16.5562 35.5607C16.6215 35.5607 16.7135 35.7396 16.7607 35.9584C16.8087 36.1771 16.8944 36.3561 16.9526 36.3561C17.0108 36.3561 17.0958 36.4603 17.1422 36.5883C17.1886 36.7156 17.3726 37.0584 17.552 37.3503C17.7313 37.6422 17.9492 38.0447 18.0365 38.2451C18.1238 38.4455 18.2347 38.6094 18.2827 38.6094C18.3314 38.6094 18.4085 38.7589 18.4534 38.9411C18.499 39.1232 18.5886 39.2727 18.6539 39.2727C18.7192 39.2727 18.8112 39.4517 18.8584 39.6704C18.9056 39.8892 18.9992 40.0681 19.0653 40.0681C19.1321 40.0681 19.1864 40.1596 19.1864 40.271C19.1864 40.3823 19.2714 40.5072 19.3744 40.547C19.4782 40.5875 19.6009 40.7943 19.6473 41.0067C19.6937 41.2199 19.7858 41.3932 19.8518 41.3932C19.9187 41.3932 19.973 41.4847 19.973 41.5969C19.973 41.7082 20.0555 41.8315 20.1578 41.8713C20.2593 41.911 20.382 42.1019 20.4299 42.2968C20.4787 42.4909 20.5574 42.681 20.6061 42.7176C20.6541 42.755 20.8146 43.0238 20.9624 43.3157C21.5736 44.5183 21.8827 45.0449 22.0376 45.1451C22.1273 45.2032 22.2012 45.3376 22.2012 45.4434C22.2012 45.5491 22.2563 45.6358 22.3232 45.6358C22.3908 45.6358 22.4844 45.7575 22.5308 45.9079C22.578 46.0574 22.7888 46.3573 22.9988 46.5752C23.2088 46.7923 23.3811 47.0143 23.3811 47.0667C23.3811 47.12 23.617 47.3109 23.9057 47.4915C24.1936 47.672 24.4295 47.8534 24.4295 47.8947C24.4295 48.368 28.4472 48.7816 28.728 48.3378C28.7791 48.2566 28.96 48.1461 29.1299 48.0928C29.6498 47.9281 31.1136 46.5291 31.1144 46.195C31.1152 46.1011 31.2001 45.9922 31.3039 45.9516C31.4078 45.9118 31.5305 45.7042 31.5769 45.4919C31.6225 45.2795 31.7137 45.1053 31.779 45.1053C31.8435 45.1053 31.934 44.9566 31.9796 44.7736C32.0244 44.5915 32.1086 44.4428 32.1652 44.4428C32.2226 44.4428 32.3335 44.2781 32.4114 44.0777C32.5663 43.6808 32.8338 43.2226 32.973 43.1153C33.0217 43.0787 33.1004 42.8886 33.1484 42.6945C33.1971 42.4996 33.3198 42.3087 33.4213 42.269C33.5228 42.2292 33.6061 42.1107 33.6061 42.0049C33.6061 41.8999 33.6502 41.7933 33.7045 41.7695C33.7996 41.7265 34.1489 41.1141 34.7136 40.0013C34.8615 39.7102 35.0188 39.4414 35.0636 39.4048C35.1077 39.3682 35.1895 39.1924 35.2445 39.0135C35.2996 38.8345 35.4105 38.6134 35.4915 38.5211C35.7754 38.1966 35.9037 38.0097 36.0665 37.682C36.1569 37.4998 36.411 37.052 36.6312 36.6877C36.8506 36.3227 37.0992 35.8605 37.1826 35.6601C37.2659 35.4597 37.38 35.2958 37.4366 35.2958C37.4925 35.2958 37.5389 35.2139 37.5389 35.1145C37.5389 35.015 37.6529 34.7868 37.7929 34.607C37.9329 34.4272 38.0855 34.125 38.1327 33.9357C38.1791 33.7464 38.301 33.5595 38.4025 33.5197C38.5048 33.4799 38.5873 33.3567 38.5873 33.2453C38.5873 33.1332 38.6416 33.0417 38.7085 33.0417C38.7745 33.0417 38.8681 32.8627 38.9153 32.644C38.9625 32.4253 39.0545 32.2463 39.1198 32.2463C39.1851 32.2463 39.2748 32.0976 39.3204 31.9154C39.3652 31.7333 39.4549 31.5837 39.5194 31.5837C39.5839 31.5837 39.6366 31.4986 39.6366 31.3944C39.6366 31.2902 39.7168 31.1232 39.8159 31.0238C39.9142 30.9236 40.0362 30.7112 40.0865 30.5505C40.1368 30.3899 40.2336 30.2578 40.3004 30.2578C40.3681 30.2578 40.4231 30.1942 40.4231 30.1155C40.4231 30.0367 40.7472 29.4227 41.1436 28.7506C41.5408 28.0785 41.8649 27.4573 41.8649 27.369C41.8649 27.2807 41.9199 27.2091 41.9868 27.2091C42.0544 27.2091 42.1512 27.0747 42.2015 26.9108C42.2518 26.747 42.3297 26.5823 42.3738 26.5466C42.4186 26.51 42.6011 26.1966 42.7796 25.8506C42.9582 25.5038 43.1501 25.2206 43.2059 25.2206C43.2618 25.2206 43.3066 25.1403 43.3066 25.0425C43.3066 24.9438 43.4246 24.7259 43.5693 24.5581C43.7133 24.3895 43.8312 24.1715 43.8312 24.0737C43.8312 23.9751 43.8902 23.8947 43.9626 23.8947C44.0342 23.8947 44.0931 23.6927 44.0931 23.4453C44.0931 23.1677 44.1687 22.9665 44.2898 22.9188C44.3983 22.8774 44.4864 22.7176 44.4864 22.5641C44.4864 22.2737 44.7885 21.876 44.9308 21.9778C44.9764 22.0105 44.9568 21.9691 44.8876 21.8856C44.8034 21.7838 44.8663 21.6525 45.085 21.4783C45.262 21.3376 45.3737 21.1674 45.332 21.1005C45.2911 21.0337 45.3155 20.9788 45.3862 20.9788C45.4924 20.9788 45.6316 20.5811 45.7001 20.0856C45.7079 20.0299 45.8511 19.8756 46.0178 19.7428C46.1932 19.6036 46.3222 19.3586 46.3222 19.1654C46.3222 18.9212 46.3757 18.8504 46.5189 18.9053C46.6534 18.9578 46.7155 18.8973 46.7155 18.7128C46.7155 18.5561 46.7737 18.4805 46.8547 18.5314C46.9318 18.58 46.9782 18.5386 46.957 18.44C46.9113 18.2228 47.2637 17.3996 47.4029 17.3996C47.4572 17.3996 47.502 17.2803 47.502 17.1339C47.502 16.9884 47.572 16.8842 47.6586 16.9025C47.7443 16.9208 47.8536 16.7864 47.9008 16.6042C48.0731 15.9353 48.1895 15.6808 48.2925 15.7452C48.3507 15.781 48.4357 15.6362 48.4821 15.4231C48.5285 15.2099 48.6795 14.9029 48.8179 14.7422C48.9564 14.5807 49.0319 14.3867 48.9855 14.3103C48.9328 14.2252 48.9855 14.2053 49.1223 14.2586C49.3142 14.3334 49.3229 14.3055 49.1876 14.0494C49.0492 13.7862 49.0547 13.7726 49.2395 13.9269C49.4196 14.0773 49.4377 14.0637 49.3772 13.8275C49.337 13.6724 49.3693 13.5547 49.4527 13.5547C49.5337 13.5547 49.599 13.4688 49.599 13.363C49.599 13.2572 49.7028 13.1093 49.8286 13.0353C49.9545 12.9613 50.0064 12.8985 49.9435 12.8961C49.8806 12.8937 49.9002 12.8054 49.9875 12.6989C50.0748 12.5931 50.1102 12.4467 50.0654 12.3743C50.0213 12.3012 50.1488 12.1516 50.3493 12.0419C50.5499 11.9321 50.6309 11.8398 50.5295 11.8367C50.3761 11.8327 50.3777 11.7929 50.542 11.5996C50.6506 11.4724 50.7772 11.2592 50.8236 11.1272C50.87 10.9951 50.9691 10.9251 51.0439 10.9713C51.1178 11.0182 51.1673 11.0071 51.154 10.9466C51.1099 10.7526 51.3286 10.1083 51.4379 10.1083C51.4969 10.1083 51.5842 9.92694 51.6322 9.70503C51.6802 9.48311 51.876 9.15541 52.0671 8.97566C52.3031 8.75454 52.3527 8.64955 52.2197 8.64796C52.0475 8.64637 52.0475 8.63126 52.2213 8.5207C52.3291 8.4515 52.4227 8.3481 52.429 8.29003C52.4533 8.05539 52.7389 7.47715 52.8702 7.39443C52.9481 7.34591 52.9819 7.25682 52.9449 7.19638C52.908 7.13672 52.9654 7.0532 53.0716 7.01184C53.1809 6.96969 53.232 6.84879 53.1888 6.73425C53.1463 6.6229 53.2391 6.3127 53.3948 6.04545C53.5655 5.75354 53.6261 5.52765 53.5482 5.47834C53.4766 5.4338 53.4381 5.14507 53.4625 4.83646C53.4876 4.51592 53.4499 4.27571 53.3744 4.27571C53.2973 4.27571 53.2769 4.13413 53.3241 3.94085C53.3815 3.71178 53.3477 3.58373 53.2179 3.53282C53.1133 3.49305 52.9945 3.37136 52.9536 3.26398C52.9048 3.13513 52.9347 3.10013 53.0417 3.16217C53.1314 3.21387 53.0464 3.08263 52.8529 2.87106C52.6602 2.65949 52.4832 2.39781 52.4596 2.29043C52.4368 2.18305 52.3 2.03034 52.1552 1.95159C52.0113 1.87205 51.9004 1.71138 51.9098 1.59367C51.9193 1.46959 51.8556 1.40755 51.7565 1.44573C51.6629 1.48232 51.4489 1.43459 51.2806 1.34074C51.1131 1.24688 50.9164 1.16496 50.8449 1.15859C50.7725 1.15302 50.7269 1.07985 50.7434 0.996332C50.7607 0.911225 50.6608 0.86748 50.5145 0.895318C50.3714 0.923157 50.255 0.902478 50.255 0.849187C50.255 0.795896 50.063 0.759307 49.8286 0.768852C49.5943 0.778396 49.2993 0.696471 49.1735 0.587503C49.0099 0.447515 48.9438 0.437175 48.9438 0.553302Z" fill="#D3D3D3"/>
</svg>
